<svg width="23" height="23" viewBox="0 0 23 23" fill="none" xmlns="http://www.w3.org/2000/svg">
<path d="M0.714566 8.51778C1.55204 7.81367 2.83344 7.89754 3.56054 8.76453L3.9975 9.28149L0.900362 11.8802L0.483129 11.3651C-0.234497 10.5116 -0.14371 9.23689 0.714566 8.51778Z" fill="white"/>
<path d="M9.46163 15.7466L9.69213 16.0194C9.89217 16.2589 10.0363 16.5452 10.1086 16.8485L10.7351 19.4701C10.7943 19.7182 10.7081 19.9788 10.5127 20.1427C10.3225 20.3025 10.0542 20.3489 9.81184 20.2453L7.33831 19.1727C7.05206 19.0483 6.79543 18.8569 6.59539 18.6193L6.36408 18.3457L9.46163 15.7466Z" fill="white"/>
<path d="M4.86704 10.3103L8.5921 14.7178L5.49474 17.3168L1.76991 12.909L4.86704 10.3103Z" fill="white"/>
<path d="M6.10846 2.98746L8.6682 0.555346C8.91019 0.32593 9.20789 0.190805 9.52167 0.103027V4.04295H5.52128C5.60488 3.64269 5.80883 3.27191 6.10846 2.98746Z" fill="white"/>
<path d="M11.4194 16.5353C11.2989 16.0313 11.0588 15.5542 10.7258 15.1554L5.47864 8.9466V5.39062H10.1954C10.5679 5.39062 10.8693 5.08924 10.8693 4.7168V0H20.9767C22.0914 0 22.9982 0.906793 22.9982 2.02148V20.9785C22.9982 22.0932 22.0914 23 20.9767 23H7.50012C6.38543 23 5.47864 22.0932 5.47864 20.9785V19.3856L5.56615 19.4892C5.89713 19.8834 6.3242 20.2012 6.79997 20.4085L9.27548 21.4818C9.97321 21.7831 10.7809 21.6763 11.3785 21.1758C11.9688 20.6803 12.2248 19.9071 12.0458 19.1569L11.4194 16.5353ZM19.629 4.04297H12.8907C12.5183 4.04297 12.2169 4.34435 12.2169 4.7168C12.2169 5.08924 12.5183 5.39062 12.8907 5.39062H19.629C20.0015 5.39062 20.3029 5.08924 20.3029 4.7168C20.3029 4.34435 20.0015 4.04297 19.629 4.04297ZM19.629 8.13086H8.84778C8.47533 8.13086 8.17395 8.43224 8.17395 8.80469C8.17395 9.17713 8.47533 9.47852 8.84778 9.47852H19.629C20.0015 9.47852 20.3029 9.17713 20.3029 8.80469C20.3029 8.43224 20.0015 8.13086 19.629 8.13086ZM14.2384 17.5645H19.629C20.0015 17.5645 20.3029 17.2631 20.3029 16.8906C20.3029 16.5182 20.0015 16.2168 19.629 16.2168H14.2384C13.866 16.2168 13.5646 16.5182 13.5646 16.8906C13.5646 17.2631 13.866 17.5645 14.2384 17.5645ZM19.629 13.5215C20.0015 13.5215 20.3029 13.2201 20.3029 12.8477C20.3029 12.4752 20.0015 12.1738 19.629 12.1738H11.5431C11.1706 12.1738 10.8693 12.4752 10.8693 12.8477C10.8693 13.2201 11.1706 13.5215 11.5431 13.5215H19.629Z" fill="white"/>
</svg>
